<svg width="124" height="124" viewBox="0 0 124 124" fill="none" xmlns="http://www.w3.org/2000/svg">
<g clip-path="url(#clip0)">
<g filter="url(#filter0_d)">
<path d="M71.9968 123.193C71.4803 123.277 70.9619 123.355 70.4415 123.426C70.9619 123.355 71.4803 123.277 71.9968 123.193Z" fill="#FDFDFD"/>
<path d="M73.2371 122.981C72.9902 123.026 72.7433 123.068 72.4963 123.111C72.7433 123.068 72.9902 123.026 73.2371 122.981Z" fill="#FDFDFD"/>
<path d="M69.0565 123.598C68.452 123.666 67.8437 123.727 67.2335 123.778C67.8437 123.727 68.452 123.666 69.0565 123.598Z" fill="#FDFDFD"/>
<path d="M70.2477 123.452C69.9572 123.491 69.6649 123.527 69.3735 123.561C69.6649 123.527 69.9572 123.491 70.2477 123.452Z" fill="#FDFDFD"/>
<path d="M74.9249 122.646C74.7073 122.692 74.4888 122.739 74.2703 122.783C74.4888 122.739 74.7073 122.692 74.9249 122.646Z" fill="#FDFDFD"/>
<path d="M79.114 121.605C78.938 121.656 78.762 121.703 78.5861 121.752C78.762 121.703 78.938 121.656 79.114 121.605Z" fill="#FDFDFD"/>
<path d="M77.8472 121.952C77.6561 122.002 77.464 122.053 77.272 122.101C77.464 122.053 77.6561 122.003 77.8472 121.952Z" fill="#FDFDFD"/>
<path d="M76.1898 122.366C75.9873 122.414 75.783 122.458 75.5786 122.503C75.783 122.458 75.9873 122.414 76.1898 122.366Z" fill="#FDFDFD"/>
<path d="M67.2136 123.78C66.8872 123.807 66.5609 123.832 66.2335 123.854C66.5609 123.832 66.8872 123.807 67.2136 123.78Z" fill="#FDFDFD"/>
<path d="M124 62C124 27.7636 96.2364 0 62 0C27.7636 0 0 27.7636 0 62C0 96.2364 27.7636 124 62 124C62.3642 124 62.7266 123.992 63.0898 123.986V75.7214H49.7695V60.1978H63.0898V48.7743C63.0898 35.5259 71.1776 28.3151 82.9956 28.3151C88.6548 28.3151 93.5194 28.7371 94.9375 28.9253V42.7716H86.7883C80.3589 42.7716 79.114 45.8274 79.114 50.3107V60.1978H94.4872L92.4835 75.7214H79.114V121.605C105.029 114.175 124 90.3 124 62Z" fill="#FDFDFD"/>
<path d="M66.0964 123.862C65.4512 123.903 64.8031 123.937 64.1532 123.958C64.8031 123.937 65.4512 123.903 66.0964 123.862Z" fill="#FDFDFD"/>
<path d="M64.1201 123.96C63.7776 123.972 63.4342 123.98 63.0908 123.986C63.4342 123.98 63.7776 123.972 64.1201 123.96Z" fill="#FDFDFD"/>
</g>
</g>
<defs>
<filter id="filter0_d" x="-4" y="0" width="132" height="132" filterUnits="userSpaceOnUse" color-interpolation-filters="sRGB">
<feFlood flood-opacity="0" result="BackgroundImageFix"/>
<feColorMatrix in="SourceAlpha" type="matrix" values="0 0 0 0 0 0 0 0 0 0 0 0 0 0 0 0 0 0 127 0"/>
<feOffset dy="4"/>
<feGaussianBlur stdDeviation="2"/>
<feColorMatrix type="matrix" values="0 0 0 0 0 0 0 0 0 0 0 0 0 0 0 0 0 0 0.25 0"/>
<feBlend mode="normal" in2="BackgroundImageFix" result="effect1_dropShadow"/>
<feBlend mode="normal" in="SourceGraphic" in2="effect1_dropShadow" result="shape"/>
</filter>
<clipPath id="clip0">
<rect width="124" height="124" fill="white"/>
</clipPath>
</defs>
</svg>
