<svg width="134" height="134" viewBox="0 0 134 134" fill="none" xmlns="http://www.w3.org/2000/svg">
<g filter="url(#filter0_d)">
<rect x="5" y="1" width="124" height="124" rx="62" fill="#FDFDFD"/>
<path d="M88.2695 18H45.7305C32.6458 18 22 28.6458 22 41.7305V84.2695C22 97.3542 32.6458 108 45.7305 108H88.2695C101.354 108 112 97.3542 112 84.2695V41.7305C112 28.6458 101.354 18 88.2695 18ZM106.727 84.2695C106.727 94.447 98.447 102.727 88.2695 102.727H45.7305C35.553 102.727 27.2734 94.447 27.2734 84.2695V41.7305C27.2734 31.553 35.553 23.2734 45.7305 23.2734H88.2695C98.447 23.2734 106.727 31.553 106.727 41.7305V84.2695Z" fill="#545454"/>
<path d="M80.3594 33.8203H53.6406C44.9175 33.8203 37.8203 40.9175 37.8203 49.6406V76.3594C37.8203 85.0825 44.9175 92.1797 53.6406 92.1797H80.3594C89.0825 92.1797 96.1797 85.0825 96.1797 76.3594V49.6406C96.1797 40.9175 89.0825 33.8203 80.3594 33.8203ZM90.9062 76.3594C90.9062 82.1753 86.1753 86.9062 80.3594 86.9062H53.6406C47.8247 86.9062 43.0938 82.1753 43.0938 76.3594V49.6406C43.0938 43.8247 47.8247 39.0938 53.6406 39.0938H80.3594C86.1753 39.0938 90.9062 43.8247 90.9062 49.6406V76.3594Z" fill="#545454"/>
<path d="M67 49.8164C59.7305 49.8164 53.8164 55.7305 53.8164 63C53.8164 70.2695 59.7305 76.1836 67 76.1836C74.2695 76.1836 80.1836 70.2695 80.1836 63C80.1836 55.7305 74.2695 49.8164 67 49.8164ZM67 70.9102C62.6384 70.9102 59.0898 67.3616 59.0898 63C59.0898 58.6384 62.6384 55.0898 67 55.0898C71.3616 55.0898 74.9102 58.6384 74.9102 63C74.9102 67.3616 71.3616 70.9102 67 70.9102Z" fill="#545454"/>
<path d="M84.7539 47.8828C84.7539 49.3392 83.5736 50.5195 82.1172 50.5195C80.6608 50.5195 79.4805 49.3392 79.4805 47.8828C79.4805 46.4264 80.6608 45.2461 82.1172 45.2461C83.5736 45.2461 84.7539 46.4264 84.7539 47.8828Z" fill="#545454"/>
<rect x="4.5" y="0.5" width="125" height="125" rx="62.5" stroke="#2E2E2E" stroke-opacity="0.38"/>
</g>
<defs>
<filter id="filter0_d" x="0" y="0" width="134" height="134" filterUnits="userSpaceOnUse" color-interpolation-filters="sRGB">
<feFlood flood-opacity="0" result="BackgroundImageFix"/>
<feColorMatrix in="SourceAlpha" type="matrix" values="0 0 0 0 0 0 0 0 0 0 0 0 0 0 0 0 0 0 127 0"/>
<feOffset dy="4"/>
<feGaussianBlur stdDeviation="2"/>
<feColorMatrix type="matrix" values="0 0 0 0 0 0 0 0 0 0 0 0 0 0 0 0 0 0 0.25 0"/>
<feBlend mode="normal" in2="BackgroundImageFix" result="effect1_dropShadow"/>
<feBlend mode="normal" in="SourceGraphic" in2="effect1_dropShadow" result="shape"/>
</filter>
</defs>
</svg>
