<svg width="810" height="810" viewBox="0 0 810 810" fill="none" xmlns="http://www.w3.org/2000/svg">
<g filter="url(#filter0_d)">
<rect x="5" y="1" width="800" height="800" rx="400" fill="#FDFDFD"/>
<g clip-path="url(#clip0)">
<path d="M525.804 197.719L530.668 201.452C545.296 212.674 548.054 233.63 536.832 248.258L430.927 386.285C430.375 387.004 429.495 387.393 428.592 387.316L383.28 383.472L525.804 197.719Z" fill="#545454"/>
<path d="M223.368 534.841C228.065 546.181 240.013 552.732 252.099 550.595C358.064 531.861 461.67 501.636 561.086 460.453L634.999 429.834C652.03 422.779 660.118 403.253 653.063 386.222L645.433 367.804C638.378 350.773 618.852 342.686 601.821 349.741L237.528 500.649C224.177 506.181 217.836 521.489 223.368 534.841Z" fill="#545454"/>
<path d="M653.063 386.221L645.433 367.804C639.194 352.742 623.202 344.676 607.808 347.891L615.363 366.129C622.418 383.16 614.331 402.687 597.3 409.741L523.386 440.36C426.266 480.592 325.146 510.367 221.736 529.185C222.058 531.087 222.598 532.981 223.368 534.839C228.065 546.178 240.013 552.73 252.099 550.592C358.064 531.86 461.671 501.633 561.086 460.45L635 429.831C652.031 422.779 660.119 403.253 653.063 386.221Z" fill="#545454"/>
<path d="M577.184 422.384C586.158 423.565 594.39 417.248 595.571 408.274C596.752 399.3 590.435 391.067 581.461 389.886C572.487 388.705 564.255 395.022 563.073 403.996C561.892 412.97 568.21 421.203 577.184 422.384Z" fill="#545454"/>
<path d="M595.077 410.664L571.387 420.478C578.368 424.351 587.318 422.636 592.324 416.112C593.614 414.432 594.527 412.582 595.077 410.664Z" fill="#C6D0DA"/>
<path d="M237.528 500.65L319.392 466.738L525.804 197.72L514.857 189.321C500.23 178.097 479.275 180.857 468.053 195.485L230.781 504.722C232.761 503.072 235.021 501.689 237.528 500.65Z" fill="#545454"/>
<path d="M252.099 550.595C240.012 552.732 228.065 546.181 223.368 534.841C220.452 527.802 220.836 520.221 223.805 513.814L212.092 529.08C196.781 549.035 173.358 561.108 148.223 562.001C139.49 562.311 132.26 568.884 131.119 577.546C129.83 587.342 136.726 596.329 146.524 597.619C187.242 602.978 227.727 586.207 252.727 553.623L255.519 549.985C254.379 550.19 253.239 550.393 252.099 550.595Z" fill="#545454"/>
<path d="M378.999 356.461C383.106 357.002 386.873 354.111 387.413 350.004C387.954 345.897 385.063 342.13 380.956 341.59C376.85 341.049 373.082 343.94 372.542 348.047C372.001 352.153 374.892 355.921 378.999 356.461Z" fill="#FDFDFD"/>
<path d="M246.107 529.661C250.213 530.202 253.981 527.311 254.521 523.204C255.062 519.098 252.171 515.33 248.064 514.79C243.957 514.249 240.19 517.14 239.649 521.247C239.109 525.354 242 529.121 246.107 529.661Z" fill="#FDFDFD"/>
<path d="M564.78 425.087C575.254 433.126 590.238 431.151 598.275 420.676C606.293 410.225 604.314 395.2 593.864 387.181C583.388 379.145 568.408 381.116 560.369 391.592C552.333 402.066 554.303 417.049 564.78 425.087ZM572.27 400.723C574.263 398.126 577.418 396.915 580.498 397.32C587.221 398.205 590.543 406.113 586.376 411.546C583.384 415.443 577.811 416.179 573.912 413.186C570.022 410.203 569.286 404.612 572.27 400.723Z" fill="#FDFDFD"/>
<path d="M355.453 496.86L499.887 443.484C503.773 442.048 505.759 437.735 504.323 433.85C502.887 429.966 498.574 427.978 494.689 429.415L350.254 482.79C346.368 484.226 344.383 488.54 345.819 492.425C347.25 496.297 351.556 498.299 355.453 496.86Z" fill="#FDFDFD"/>
<path d="M145.545 605.056C188.781 610.747 232.13 592.789 258.677 558.19L259.703 556.852C270.1 554.967 280.558 552.957 290.877 550.859C294.937 550.033 297.559 546.074 296.732 542.015C295.907 537.956 291.946 535.335 287.889 536.16C274.051 538.975 262.653 541.096 250.793 543.21C242.102 544.746 233.674 540.124 230.296 531.971C226.357 522.461 230.888 511.519 240.398 507.579C673.417 328.201 172.141 535.855 604.692 356.671C617.876 351.209 633.043 357.492 638.505 370.676L646.135 389.093C651.608 402.307 645.346 417.431 632.13 422.906L558.216 453.525C482.053 485.076 402.683 510.38 322.311 528.733C318.273 529.655 315.747 533.676 316.669 537.714C317.591 541.753 321.611 544.28 325.65 543.357C406.84 524.816 487.018 499.255 563.957 467.384L637.87 436.765C658.743 428.119 668.641 404.23 659.992 383.354L652.363 364.936C643.735 344.111 619.779 334.188 598.952 342.814L342.382 449.097L386.734 391.291L427.959 394.789C431.429 395.083 434.764 393.609 436.876 390.851L542.782 252.823C556.504 234.938 553.118 209.224 535.233 195.502C528.366 190.234 530.814 192.111 519.422 183.371C501.536 169.649 475.823 173.037 462.101 190.919L269.213 442.313C265.683 446.915 268.514 453.569 274.178 454.315C276.747 454.653 279.422 453.647 281.113 451.444L351.023 360.33C355.198 371.077 365.107 378.695 376.54 379.937L314.667 460.578L255.206 485.21L259.192 480.015C261.713 476.729 261.093 472.021 257.807 469.5C254.52 466.977 249.812 467.598 247.292 470.885L225.291 499.558C222 502.462 219.348 505.955 217.43 509.804L206.142 524.516C192.144 542.759 170.936 553.691 147.957 554.508C135.516 554.949 125.308 564.228 123.684 576.568C121.857 590.449 131.664 603.229 145.545 605.056ZM370.183 361.792C363.329 356.532 361.673 346.518 367.215 339.227L474.003 200.049C482.69 188.728 498.969 186.584 510.292 195.27L515.288 199.104L453.154 280.085C450.633 283.371 451.253 288.079 454.539 290.6C457.826 293.122 462.533 292.501 465.054 289.216L527.167 208.263C537.552 217.131 539.29 232.733 530.882 243.691L426.588 379.618L397.579 377.157L443.694 317.053C446.216 313.767 445.596 309.059 442.31 306.537C439.022 304.015 434.315 304.636 431.794 307.922C390.999 361.092 392.831 358.729 392.742 358.819C387.329 365.875 377.239 367.205 370.183 361.792ZM148.488 569.497C174.811 568.561 199.189 556.523 215.901 536.331C219.884 547.264 228.861 554.991 239.508 557.567C216.018 582.312 181.719 594.688 147.501 590.184C141.82 589.436 137.806 584.206 138.554 578.525C139.22 573.475 143.397 569.679 148.488 569.497Z" fill="#FDFDFD"/>
</g>
<rect x="4.5" y="0.5" width="801" height="801" rx="400.5" stroke="#FDFDFD"/>
</g>
<defs>
<filter id="filter0_d" x="0" y="0" width="810" height="810" filterUnits="userSpaceOnUse" color-interpolation-filters="sRGB">
<feFlood flood-opacity="0" result="BackgroundImageFix"/>
<feColorMatrix in="SourceAlpha" type="matrix" values="0 0 0 0 0 0 0 0 0 0 0 0 0 0 0 0 0 0 127 0"/>
<feOffset dy="4"/>
<feGaussianBlur stdDeviation="2"/>
<feColorMatrix type="matrix" values="0 0 0 0 0 0 0 0 0 0 0 0 0 0 0 0 0 0 0.25 0"/>
<feBlend mode="normal" in2="BackgroundImageFix" result="effect1_dropShadow"/>
<feBlend mode="normal" in="SourceGraphic" in2="effect1_dropShadow" result="shape"/>
</filter>
<clipPath id="clip0">
<rect x="184.596" y="113.782" width="512" height="512" transform="rotate(7.49819 184.596 113.782)" fill="white"/>
</clipPath>
</defs>
</svg>
