<svg width="134" height="134" viewBox="0 0 134 134" fill="none" xmlns="http://www.w3.org/2000/svg">
<g filter="url(#filter0_d)">
<rect x="5" y="1" width="124" height="124" rx="62" fill="#FDFDFD"/>
<g clip-path="url(#clip0)">
<path d="M87.3233 71.5141L87.2901 71.7909C79.1748 67.7461 78.3259 67.2073 77.2779 68.7794C76.5508 69.8681 74.4325 72.3371 73.794 73.0678C73.1482 73.7874 72.5061 73.8428 71.41 73.3446C70.3029 72.791 66.7489 71.6285 62.5418 67.8642C59.2646 64.9303 57.0651 61.3321 56.4156 60.2249C55.3343 58.3575 57.5965 58.0918 59.6558 54.1947C60.0249 53.4197 59.8367 52.8108 59.5636 52.2609C59.2868 51.7073 57.0836 46.2823 56.1609 44.1197C55.2752 41.9644 54.3637 42.2375 53.681 42.2375C51.5552 42.053 50.0015 42.0825 48.6324 43.5071C42.676 50.054 44.178 56.8075 49.2745 63.9892C59.2905 77.0978 64.6269 79.5114 74.3845 82.8623C77.0195 83.7 79.422 83.582 81.3226 83.3089C83.4409 82.973 87.8437 80.648 88.7626 78.0462C89.7037 75.4445 89.7037 73.2855 89.4269 72.7873C89.1538 72.2891 88.4305 72.0123 87.3233 71.5141Z" fill="#545454"/>
<path d="M98.4428 31.4425C70.0667 4.01114 23.1054 23.9065 23.087 62.6048C23.087 70.3401 25.113 77.8834 28.9733 84.5447L22.7142 107.285L46.0934 101.189C75.2666 116.947 111.271 96.0221 111.286 62.627C111.286 50.906 106.709 39.8752 98.3874 31.5864L98.4428 31.4425ZM103.912 62.5052C103.89 90.6746 72.9674 108.267 48.5107 93.889L47.1821 93.0993L33.3428 96.6975L37.0517 83.2457L36.1697 81.8617C20.9502 57.6338 38.4357 25.9695 67.2657 25.9695C77.0602 25.9695 86.2532 29.7891 93.1765 36.7088C100.096 43.5694 103.912 52.7623 103.912 62.5052Z" fill="#545454"/>
</g>
<rect x="4.82286" y="0.822857" width="124.354" height="124.354" rx="62.1771" stroke="#2E2E2E" stroke-opacity="0.38" stroke-width="0.354286"/>
</g>
<defs>
<filter id="filter0_d" x="0.645752" y="0.645508" width="132.709" height="132.709" filterUnits="userSpaceOnUse" color-interpolation-filters="sRGB">
<feFlood flood-opacity="0" result="BackgroundImageFix"/>
<feColorMatrix in="SourceAlpha" type="matrix" values="0 0 0 0 0 0 0 0 0 0 0 0 0 0 0 0 0 0 127 0"/>
<feOffset dy="4"/>
<feGaussianBlur stdDeviation="2"/>
<feColorMatrix type="matrix" values="0 0 0 0 0 0 0 0 0 0 0 0 0 0 0 0 0 0 0.25 0"/>
<feBlend mode="normal" in2="BackgroundImageFix" result="effect1_dropShadow"/>
<feBlend mode="normal" in="SourceGraphic" in2="effect1_dropShadow" result="shape"/>
</filter>
<clipPath id="clip0">
<rect x="22.7142" y="18.7144" width="88.5714" height="88.5714" fill="white"/>
</clipPath>
</defs>
</svg>
